<?xml version="1.0" encoding="utf-8"?>
<!-- Generator: Adobe Illustrator 27.7.0, SVG Export Plug-In . SVG Version: 6.00 Build 0)  -->
<svg version="1.1" id="레이어_1" xmlns="http://www.w3.org/2000/svg" xmlns:xlink="http://www.w3.org/1999/xlink" x="0px"
	 y="0px" viewBox="0 0 460.2 115.2" style="enable-background:new 0 0 460.2 115.2;" xml:space="preserve">
<style type="text/css">
	.st0{fill:#2C0082;}
</style>
<path class="st0" d="M183.2,48.8v26.9h9v6.2c0,4.4-4.3,5.8-4.5,5.9c-0.3,0-0.7,0.1-1,0.1c-5.6,0-18.2,0-18.2,0l0.1-0.5h-0.1V39.6
	c0-4.3,3.2-7.8,7.3-8.4l0,0c0,0,11-2.7,39.1,1.4l4.1-23l0.9-5.1c-7-1.7-16.1-2.9-23.2-3.6c-2.2-0.3-4.2-0.5-6-0.6
	c-1.9-0.2-3.8-0.3-5.6-0.3c-0.1,0-0.1,0-0.1,0l0,0c-3.6-0.1-7,0.1-9.9,0.3c-3.6,0.2-8.1,0.8-12.8,2c-0.1,0-0.2,0.1-0.3,0.1
	c0,0,0,0-0.1,0c-0.1,0-0.2,0-0.2,0h0c-13.5,3.8-28.5,13.4-30,37.5c0,0-4.4,36,4.6,52.8c10.7,19.8,24.3,22.2,46,22.3c0,0,0.1,0,0.1,0
	v0c0.2,0,0.3,0,0.5,0c0.2,0,0.3,0,0.5,0v0c0.1,0,0.2,0,0.4,0c0.2,0,0.5,0,0.7,0c6.3,0,12-0.3,17.1-1.2l0,0c0.2,0,0.3-0.1,0.5-0.1
	c0.1,0,0.1,0,0.2,0c14.4-2.6,23.9-7.3,23.9-7.3v-6.2v-2v-7.8V49v-0.2H183.2z"/>
<g>
	<g>
		<path class="st0" d="M111.8,35.9L41.4,8.7c-1.8-0.7-3.8,0.2-4.5,2c-0.7,1.8,0.2,3.8,2,4.5L95.3,37c-0.7,6,0.8,15.4,9.8,22.2
			l-9.8,25.3c-0.9-0.1-1.8-0.2-2.7-0.2c-9.9,0-16.4,5.5-19.5,9.9L23,74.8c0.8-5.6-0.6-15.9-10.3-22.7l11.9-30.7
			c0.7-1.8-0.2-3.8-2-4.5c-1.8-0.7-3.8,0.2-4.5,2l-17.4,45c-1.8,4.7,0.5,10,5.3,11.9l78.9,30.4c1.1,0.4,2.2,0.6,3.3,0.6
			c1.3,0,2.5-0.3,3.7-0.8c2.2-1,4-2.8,4.8-5.1l20.5-53.2C118.9,43,116.6,37.7,111.8,35.9z M110.6,45.2l-2.9,7.4
			c-5-4.4-5.9-9.7-5.8-13.1l7.4,2.9C110.4,42.8,111,44.1,110.6,45.2z M7.1,66.4l3-7.8c5.7,4.6,6.4,10.5,6.3,13.7l-8.1-3.1
			C7.3,68.7,6.7,67.5,7.1,66.4z M90.1,98.4c-0.2,0.5-0.6,1-1.1,1.2c-0.5,0.2-1.1,0.3-1.7,0l-7.4-2.9C82,94.3,86.1,91,92.6,91
			c0.1,0,0.2,0,0.3,0L90.1,98.4z"/>
		<path class="st0" d="M47.4,55.3c-0.4-0.1-0.8-0.2-1.1-0.2c-1.4,0-2.7,0.9-3.2,2.2c-2.4,6.7,1.1,12.2,1.3,12.4
			c1.1,1.7,2.5,3,4.1,4.1l-0.4,0.9c-0.3,0.8-0.3,1.7,0,2.6c0.3,0.8,1,1.5,1.8,1.8c0.4,0.2,0.8,0.3,1.3,0.3c1.4,0,2.6-0.8,3.1-2.1
			l0.5-1.3c0.4,0,0.8,0.1,1.3,0.1l0.1,0c4.7,0,9.5-2.2,11.4-5.1c1.9-3,2.5-6.7,1.5-9.9c-0.7-2.4-2.6-5.7-7.7-8c-4.5-2-5.5-4-5.7-4.6
			c0-0.1,0-0.2,0-0.3l-0.1-0.4c-0.5-1.7,0.1-3.3,1.4-4.5c1-0.9,2.5-1.4,4-1.4c1.1,0,2.3,0.3,3.4,0.8c5.2,2.3,3.7,8.7,3.6,8.9
			c-0.5,1.8,0.6,3.6,2.4,4.1c0.3,0.1,0.6,0.1,0.9,0.1c1.5,0,2.8-1,3.2-2.5c1-3.8,1-11.3-5.1-15.5l0.2-0.5c0.7-1.7-0.1-3.7-1.8-4.4
			c-0.4-0.2-0.8-0.2-1.3-0.2c-1.4,0-2.6,0.8-3.1,2.1l-0.2,0.6c-0.7-0.1-1.5-0.2-2.2-0.2c-3.1,0-6,1.1-8.3,3c-3.2,2.8-4.6,7-3.6,11
			c0.2,1.4,1.4,6.4,9.7,10c2.2,1,3.5,2.2,4,3.7c0.5,1.6-0.1,3.3-0.7,4.3c-0.4,0.6-2.7,2-5.9,2.1c-1.8,0-4.4-0.6-6.2-3.2
			c0,0-1.8-3-0.6-6.5C50,57.8,49.1,55.9,47.4,55.3z"/>
	</g>
</g>
<g>
	<g>
		<path class="st0" d="M340.1,40c-2-32.9-29.3-38.9-43.4-39.7c-5.9-0.5-11.2-0.4-15.7,0c-3.6,0.2-8.1,0.8-12.8,2
			c-0.1,0-0.2,0.1-0.3,0.1c0,0,0,0-0.1,0c-0.1,0-0.2,0-0.2,0h0c-13.5,3.8-28.5,13.4-30,37.5c0,0-4.4,36,4.6,52.8
			c10.7,19.8,24.3,22.2,46,22.3c0,0,0.1,0,0.1,0v0c0.2,0,0.3,0,0.5,0c0.2,0,0.3,0,0.5,0v0c0.1,0,0.2,0,0.4,0c0.2,0,0.5,0,0.7,0
			c21.1-0.1,34.5-2.8,45-22.3C344.6,76,340.1,40,340.1,40z M303.4,77.2c0,4.7-3.8,8.5-8.5,8.5h-20.4V38c0-4.7,3.8-8.5,8.5-8.5h20.4
			V77.2z"/>
	</g>
</g>
<g>
	<g>
		<polygon class="st0" points="460.2,57.2 460.2,40.5 353.1,40.5 353.1,57.2 393.1,57.2 393.1,61.4 356.1,61.4 356.1,75.3 
			430.2,75.3 430.2,80.6 356.1,80.6 356.1,112.3 458.1,112.3 458.1,98.5 384,98.5 384,94.1 457,94.1 457,75.3 457,72.8 457,61.4 
			420,61.4 420,57.2 		"/>
		<g>
			<path class="st0" d="M356.3,2.9v33.7H457V2.9H356.3z M429.4,22.1H384v-4.8h45.4V22.1z"/>
		</g>
	</g>
</g>
</svg>
